<svg width="35" height="36" viewBox="0 0 35 36" fill="none" xmlns="http://www.w3.org/2000/svg">
<path d="M23.083 13.7497C23.9163 14.6663 24.4163 15.6663 24.4163 17.333C24.4163 20.2497 22.333 22.833 19.4163 24.1663L18.6663 23.083C21.4163 21.583 21.9997 19.6663 22.1663 18.4163C21.7497 18.6663 21.1663 18.7497 20.583 18.6663C19.083 18.4997 17.9163 17.333 17.9163 15.7497C17.9163 14.9997 18.2497 14.2497 18.7497 13.6663C19.333 13.083 19.9997 12.833 20.833 12.833C21.7497 12.833 22.583 13.2497 23.083 13.7497ZM14.7497 13.7497C15.583 14.6663 16.083 15.6663 16.083 17.333C16.083 20.2497 13.9997 22.833 11.083 24.1663L10.333 23.083C13.083 21.583 13.6663 19.6663 13.833 18.4163C13.4163 18.6663 12.833 18.7497 12.2497 18.6663C10.7497 18.4997 9.58301 17.2497 9.58301 15.7497C9.58301 14.9997 9.91634 14.2497 10.4163 13.6663C10.9997 13.083 11.6663 12.833 12.4997 12.833C13.4163 12.833 14.2497 13.2497 14.7497 13.7497Z" fill="#1D1D1E"/>
<path d="M35 0.5V35.5H0V0.5H35ZM1 34.5H34V1.5H1V34.5Z" fill="#1D1D1E"/>
</svg>
